<?xml version="1.0" encoding="utf-8"?>
<svg xmlns="http://www.w3.org/2000/svg" viewBox="0 0 200 200" role="img" aria-label="Fellowship theme mark" fill="none" stroke="#664317" stroke-width="5" stroke-linejoin="round" stroke-linecap="round">
  <rect width="200" height="200" rx="28" fill="#F1E8C8" stroke="none"/>
  <!-- The Leaf of Lórien: an ivy-shaped mallorn leaf, a long blade to the point
       with a large lobe leaning forward on one side of the stem and a smaller
       one on the other, and the brooch's vine looped at the stem, run along the
       outer edge and looped again at the tip. Drawn with the blade along +x,
       then turned to run from the stem at upper right to the point at lower left. -->
  <g transform="translate(128 76) rotate(139) scale(1.02 -1.02)">
    <path d="M-8,0 C-18,-14 2,-50 40,-62 C46,-46 46,-32 42,-22 C62,-34 98,-24 122,0 C98,24 56,36 34,22 C34,34 24,48 0,54 C-14,42 -16,14 -8,0 Z" fill="#1F6E63"/>
    <g stroke="#F1E8C8" stroke-width="3">
      <path d="M0,0 L116,0 M0,0 L34,-54 M0,0 L2,46"/>
      <path d="M22,0 L38,-14 M22,0 L38,14 M38,0 L56,-17 M38,0 L56,17 M54,0 L72,-16 M54,0 L72,16 M70,0 L88,-13 M70,0 L88,13 M86,0 L102,-9 M86,0 L102,9 M100,0 L112,-5 M100,0 L112,5"/>
      <path d="M8,-14 L22,-12 M16,-26 L30,-24 M24,-38 L38,-36 M4,14 L16,16 M4,28 L18,30"/>
    </g>
    <ellipse cx="-26" cy="-8" rx="16" ry="12" transform="rotate(30 -26 -8)" stroke-width="4"/>
    <path d="M-14,-10 C-22,-44 10,-82 50,-74 C84,-56 112,-22 134,0 C140,8 136,16 128,14 C120,12 122,2 128,-2" stroke-width="4"/>
  </g>
</svg>
